<mxfile modified="2023-06-02T17:14:15.877Z" host="app.diagrams.net" agent="Mozilla/5.0 (Windows NT 10.0; Win64; x64) AppleWebKit/537.36 (KHTML, like Gecko) Chrome/112.0.0.0 YaBrowser/23.5.1.714 Yowser/2.5 Safari/537.36" etag="QzZWBtapp6GVZv7D0s6I" version="21.3.7" type="device">
  <diagram id="b_TIV87pcosbFDb4-95I" name="Page-1">
    <mxGraphModel dx="6270" dy="3525" grid="1" gridSize="10" guides="1" tooltips="1" connect="1" arrows="1" fold="1" page="1" pageScale="1" pageWidth="3300" pageHeight="2339" math="0" shadow="0">
      <root>
        <mxCell id="0" />
        <mxCell id="1" parent="0" />
        <mxCell id="iOMKYeSVAjSAsyUt3DUM-51" value="6" style="edgeStyle=orthogonalEdgeStyle;rounded=0;orthogonalLoop=1;jettySize=auto;html=1;entryX=0.5;entryY=0;entryDx=0;entryDy=0;endArrow=none;endFill=0;startArrow=none;startFill=0;exitX=0.5;exitY=1;exitDx=0;exitDy=0;" edge="1" parent="1" source="iOMKYeSVAjSAsyUt3DUM-50" target="iOMKYeSVAjSAsyUt3DUM-47">
          <mxGeometry relative="1" as="geometry">
            <mxPoint x="4290" y="310" as="sourcePoint" />
            <mxPoint x="4810" y="390" as="targetPoint" />
          </mxGeometry>
        </mxCell>
        <mxCell id="iOMKYeSVAjSAsyUt3DUM-52" style="edgeStyle=orthogonalEdgeStyle;rounded=0;orthogonalLoop=1;jettySize=auto;html=1;exitX=0.5;exitY=1;exitDx=0;exitDy=0;endArrow=none;endFill=0;startArrow=none;startFill=0;entryX=0.5;entryY=0;entryDx=0;entryDy=0;" edge="1" parent="1" source="iOMKYeSVAjSAsyUt3DUM-2" target="iOMKYeSVAjSAsyUt3DUM-49">
          <mxGeometry relative="1" as="geometry">
            <mxPoint x="4310" y="330" as="sourcePoint" />
            <mxPoint x="1550" y="1570" as="targetPoint" />
          </mxGeometry>
        </mxCell>
        <mxCell id="flblZkYbyNQ9tiGkdh4v-29" value="" style="group;strokeWidth=1;align=left;" parent="1" vertex="1" connectable="0">
          <mxGeometry x="2560" y="2080" width="700" height="220" as="geometry" />
        </mxCell>
        <mxCell id="U5MXIK-24vMOK5HsXXuc-69" style="vsdxID=8;edgeStyle=none;startArrow=none;endArrow=none;startSize=5;endSize=5;strokeColor=#000000;spacingTop=0;spacingBottom=0;spacingLeft=0;spacingRight=0;verticalAlign=middle;html=1;labelBackgroundColor=#ffffff;rounded=0;strokeWidth=1;" parent="flblZkYbyNQ9tiGkdh4v-29" edge="1">
          <mxGeometry relative="1" as="geometry">
            <mxPoint as="offset" />
            <Array as="points" />
            <mxPoint as="sourcePoint" />
            <mxPoint x="700" as="targetPoint" />
          </mxGeometry>
        </mxCell>
        <mxCell id="U5MXIK-24vMOK5HsXXuc-68" style="vsdxID=6;edgeStyle=none;startArrow=none;endArrow=none;startSize=5;endSize=5;strokeColor=#000000;spacingTop=0;spacingBottom=0;spacingLeft=0;spacingRight=0;verticalAlign=middle;html=1;labelBackgroundColor=#ffffff;rounded=0;strokeWidth=1;" parent="flblZkYbyNQ9tiGkdh4v-29" edge="1">
          <mxGeometry relative="1" as="geometry">
            <mxPoint x="10" as="offset" />
            <Array as="points" />
            <mxPoint y="220" as="sourcePoint" />
            <mxPoint as="targetPoint" />
          </mxGeometry>
        </mxCell>
        <mxCell id="U5MXIK-24vMOK5HsXXuc-2" value="&lt;p style=&quot;margin-left: 0 ; margin-right: 0 ; margin-top: 0px ; margin-bottom: 0px ; text-indent: 0 ; direction: ltr&quot;&gt;&lt;font style=&quot;font-family: &amp;quot;times new roman&amp;quot; ; color: rgb(0 , 0 , 0) ; direction: ltr ; letter-spacing: 0px ; line-height: 140% ; opacity: 1&quot; size=&quot;1&quot;&gt;&lt;i&gt;Разраб.&lt;/i&gt;&lt;/font&gt;&lt;/p&gt;" style="verticalAlign=middle;align=left;vsdxID=41;fillColor=none;gradientColor=none;shape=stencil(nZBLDoAgDERP0z3SIyjew0SURgSD+Lu9kMZoXLhwN9O+tukAlrNpJg1SzDH4QW/URgNYgZTkjA4UkwJUgGXng+6DX1zLfmoymdXo17xh5zmRJ6Q42BWCfc2oJfdAr+Yv+AP9Cb7OJ3H/2JG1HNGz/84klThPVCc=);strokeColor=none;labelBackgroundColor=none;rounded=0;html=1;whiteSpace=wrap;strokeWidth=1;" parent="flblZkYbyNQ9tiGkdh4v-29" vertex="1">
          <mxGeometry y="100" width="70" height="20" as="geometry" />
        </mxCell>
        <mxCell id="U5MXIK-24vMOK5HsXXuc-4" value="&lt;p style=&quot;margin-left: 0 ; margin-right: 0 ; margin-top: 0px ; margin-bottom: 0px ; text-indent: 0 ; direction: ltr&quot;&gt;&lt;font style=&quot;font-family: &amp;#34;times new roman&amp;#34; ; color: rgb(0 , 0 , 0) ; direction: ltr ; letter-spacing: 0px ; line-height: 140% ; opacity: 1&quot; size=&quot;1&quot;&gt;&lt;i&gt;Подп.&lt;/i&gt;&lt;/font&gt;&lt;font style=&quot;font-size: 12px ; font-family: &amp;#34;times new roman&amp;#34; ; color: #000000 ; direction: ltr ; letter-spacing: 0px ; line-height: 140% ; opacity: 1&quot;&gt;&lt;br&gt;&lt;/font&gt;&lt;/p&gt;" style="verticalAlign=middle;align=center;vsdxID=45;fillColor=none;gradientColor=none;shape=stencil(nZBLDoAgDERP0z3SIyjew0SURgSD+Lu9kMZoXLhwN9O+tukAlrNpJg1SzDH4QW/URgNYgZTkjA4UkwJUgGXng+6DX1zLfmoymdXo17xh5zmRJ6Q42BWCfc2oJfdAr+Yv+AP9Cb7OJ3H/2JG1HNGz/84klThPVCc=);strokeColor=none;labelBackgroundColor=none;rounded=0;html=1;whiteSpace=wrap;strokeWidth=1;" parent="flblZkYbyNQ9tiGkdh4v-29" vertex="1">
          <mxGeometry x="160" y="80" width="60" height="20" as="geometry" />
        </mxCell>
        <mxCell id="U5MXIK-24vMOK5HsXXuc-5" value="&lt;p style=&quot;margin-left: 0 ; margin-right: 0 ; margin-top: 0px ; margin-bottom: 0px ; text-indent: 0 ; direction: ltr&quot;&gt;&lt;font style=&quot;font-family: &amp;#34;times new roman&amp;#34; ; color: rgb(0 , 0 , 0) ; direction: ltr ; letter-spacing: 0px ; line-height: 140% ; opacity: 1&quot; size=&quot;1&quot;&gt;&lt;i&gt;Литера&lt;/i&gt;&lt;/font&gt;&lt;font style=&quot;font-size: 12px ; font-family: &amp;#34;times new roman&amp;#34; ; color: #000000 ; direction: ltr ; letter-spacing: 0px ; line-height: 140% ; opacity: 1&quot;&gt;&lt;br&gt;&lt;/font&gt;&lt;/p&gt;" style="verticalAlign=middle;align=center;vsdxID=46;fillColor=none;gradientColor=none;shape=stencil(nZBLDoAgDERP0z3SIyjew0SURgSD+Lu9kMZoXLhwN9O+tukAlrNpJg1SzDH4QW/URgNYgZTkjA4UkwJUgGXng+6DX1zLfmoymdXo17xh5zmRJ6Q42BWCfc2oJfdAr+Yv+AP9Cb7OJ3H/2JG1HNGz/84klThPVCc=);strokeColor=none;labelBackgroundColor=none;rounded=0;html=1;whiteSpace=wrap;strokeWidth=1;" parent="flblZkYbyNQ9tiGkdh4v-29" vertex="1">
          <mxGeometry x="500" y="60" width="60" height="20" as="geometry" />
        </mxCell>
        <mxCell id="U5MXIK-24vMOK5HsXXuc-7" style="vsdxID=48;edgeStyle=none;startArrow=none;endArrow=none;startSize=5;endSize=5;strokeColor=#000000;spacingTop=0;spacingBottom=0;spacingLeft=0;spacingRight=0;verticalAlign=middle;html=1;labelBackgroundColor=#ffffff;rounded=0;strokeWidth=1;" parent="flblZkYbyNQ9tiGkdh4v-29" edge="1">
          <mxGeometry relative="1" as="geometry">
            <mxPoint x="10" as="offset" />
            <Array as="points">
              <mxPoint x="580" y="150" />
            </Array>
            <mxPoint x="580" y="160" as="sourcePoint" />
            <mxPoint x="580" y="140" as="targetPoint" />
          </mxGeometry>
        </mxCell>
        <mxCell id="U5MXIK-24vMOK5HsXXuc-9" value="&lt;p style=&quot;margin-left: 0 ; margin-right: 0 ; margin-top: 0px ; margin-bottom: 0px ; text-indent: 0 ; direction: ltr&quot;&gt;&lt;font style=&quot;font-family: &amp;quot;times new roman&amp;quot; ; color: rgb(0 , 0 , 0) ; direction: ltr ; letter-spacing: 0px ; line-height: 140% ; opacity: 1&quot; size=&quot;1&quot;&gt;&lt;i style=&quot;font-size: 14px&quot;&gt;ГУИР 151004 014 СП&lt;/i&gt;&lt;/font&gt;&lt;font style=&quot;font-size: 19px ; font-family: &amp;quot;times new roman&amp;quot; ; color: #000000 ; direction: ltr ; letter-spacing: 0px ; line-height: 140% ; opacity: 1&quot;&gt;&lt;br&gt;&lt;/font&gt;&lt;/p&gt;" style="verticalAlign=middle;align=center;vsdxID=50;fillColor=none;gradientColor=none;shape=stencil(nZBLDoAgDERP0z3SIyjew0SURgSD+Lu9kMZoXLhwN9O+tukAlrNpJg1SzDH4QW/URgNYgZTkjA4UkwJUgGXng+6DX1zLfmoymdXo17xh5zmRJ6Q42BWCfc2oJfdAr+Yv+AP9Cb7OJ3H/2JG1HNGz/84klThPVCc=);strokeColor=none;labelBackgroundColor=none;rounded=0;html=1;whiteSpace=wrap;strokeWidth=1;" parent="flblZkYbyNQ9tiGkdh4v-29" vertex="1">
          <mxGeometry x="260" width="440" height="60" as="geometry" />
        </mxCell>
        <mxCell id="U5MXIK-24vMOK5HsXXuc-14" value="&lt;p style=&quot;margin: 0px ; direction: ltr&quot;&gt;Получение данных с сервера&lt;br&gt;&lt;/p&gt;" style="verticalAlign=middle;align=center;vsdxID=51;fillColor=none;gradientColor=none;shape=stencil(nZBLDoAgDERP0z3SIyjew0SURgSD+Lu9kMZoXLhwN9O+tukAlrNpJg1SzDH4QW/URgNYgZTkjA4UkwJUgGXng+6DX1zLfmoymdXo17xh5zmRJ6Q42BWCfc2oJfdAr+Yv+AP9Cb7OJ3H/2JG1HNGz/84klThPVCc=);strokeColor=none;labelBackgroundColor=none;rounded=0;html=1;whiteSpace=wrap;strokeWidth=1;" parent="flblZkYbyNQ9tiGkdh4v-29" vertex="1">
          <mxGeometry x="260" y="60" width="240" height="100" as="geometry" />
        </mxCell>
        <mxCell id="U5MXIK-24vMOK5HsXXuc-66" style="vsdxID=1;edgeStyle=none;startArrow=none;endArrow=none;startSize=5;endSize=5;strokeColor=#000000;spacingTop=0;spacingBottom=0;spacingLeft=0;spacingRight=0;verticalAlign=middle;html=1;labelBackgroundColor=#ffffff;rounded=0;strokeWidth=1;" parent="flblZkYbyNQ9tiGkdh4v-29" edge="1">
          <mxGeometry relative="1" as="geometry">
            <mxPoint x="10" as="offset" />
            <Array as="points" />
            <mxPoint x="500" y="220" as="sourcePoint" />
            <mxPoint x="500" y="60" as="targetPoint" />
          </mxGeometry>
        </mxCell>
        <mxCell id="U5MXIK-24vMOK5HsXXuc-67" style="vsdxID=4;edgeStyle=none;startArrow=none;endArrow=none;startSize=5;endSize=5;strokeColor=#000000;spacingTop=0;spacingBottom=0;spacingLeft=0;spacingRight=0;verticalAlign=middle;html=1;labelBackgroundColor=#ffffff;rounded=0;strokeWidth=1;" parent="flblZkYbyNQ9tiGkdh4v-29" edge="1">
          <mxGeometry relative="1" as="geometry">
            <mxPoint x="10" as="offset" />
            <Array as="points" />
            <mxPoint x="260" y="220" as="sourcePoint" />
            <mxPoint x="260" as="targetPoint" />
          </mxGeometry>
        </mxCell>
        <mxCell id="U5MXIK-24vMOK5HsXXuc-70" style="vsdxID=11;edgeStyle=none;startArrow=none;endArrow=none;startSize=5;endSize=5;strokeColor=#000000;spacingTop=0;spacingBottom=0;spacingLeft=0;spacingRight=0;verticalAlign=middle;html=1;labelBackgroundColor=#ffffff;rounded=0;strokeWidth=1;" parent="flblZkYbyNQ9tiGkdh4v-29" edge="1">
          <mxGeometry relative="1" as="geometry">
            <Array as="points" />
            <mxPoint x="700" y="60" as="sourcePoint" />
            <mxPoint y="60" as="targetPoint" />
          </mxGeometry>
        </mxCell>
        <mxCell id="U5MXIK-24vMOK5HsXXuc-71" style="vsdxID=12;edgeStyle=none;startArrow=none;endArrow=none;startSize=5;endSize=5;strokeColor=#000000;spacingTop=0;spacingBottom=0;spacingLeft=0;spacingRight=0;verticalAlign=middle;html=1;labelBackgroundColor=#ffffff;rounded=0;strokeWidth=1;" parent="flblZkYbyNQ9tiGkdh4v-29" edge="1">
          <mxGeometry relative="1" as="geometry">
            <Array as="points" />
            <mxPoint x="700" y="160" as="sourcePoint" />
            <mxPoint y="160" as="targetPoint" />
          </mxGeometry>
        </mxCell>
        <mxCell id="U5MXIK-24vMOK5HsXXuc-72" style="vsdxID=13;edgeStyle=none;startArrow=none;endArrow=none;startSize=5;endSize=5;strokeColor=#000000;spacingTop=0;spacingBottom=0;spacingLeft=0;spacingRight=0;verticalAlign=middle;html=1;labelBackgroundColor=#ffffff;rounded=0;strokeWidth=1;" parent="flblZkYbyNQ9tiGkdh4v-29" edge="1">
          <mxGeometry relative="1" as="geometry">
            <Array as="points" />
            <mxPoint x="260" y="200" as="sourcePoint" />
            <mxPoint y="200" as="targetPoint" />
          </mxGeometry>
        </mxCell>
        <mxCell id="U5MXIK-24vMOK5HsXXuc-73" style="vsdxID=22;edgeStyle=none;startArrow=none;endArrow=none;startSize=5;endSize=5;strokeColor=#000000;spacingTop=0;spacingBottom=0;spacingLeft=0;spacingRight=0;verticalAlign=middle;html=1;labelBackgroundColor=#ffffff;rounded=0;strokeWidth=1;" parent="flblZkYbyNQ9tiGkdh4v-29" edge="1">
          <mxGeometry relative="1" as="geometry">
            <Array as="points" />
            <mxPoint x="260" y="180" as="sourcePoint" />
            <mxPoint y="180" as="targetPoint" />
          </mxGeometry>
        </mxCell>
        <mxCell id="U5MXIK-24vMOK5HsXXuc-74" style="vsdxID=23;edgeStyle=none;startArrow=none;endArrow=none;startSize=5;endSize=5;strokeColor=#000000;spacingTop=0;spacingBottom=0;spacingLeft=0;spacingRight=0;verticalAlign=middle;html=1;labelBackgroundColor=#ffffff;rounded=0;strokeWidth=1;" parent="flblZkYbyNQ9tiGkdh4v-29" edge="1">
          <mxGeometry relative="1" as="geometry">
            <Array as="points" />
            <mxPoint x="260" y="140" as="sourcePoint" />
            <mxPoint y="140" as="targetPoint" />
          </mxGeometry>
        </mxCell>
        <mxCell id="U5MXIK-24vMOK5HsXXuc-75" style="vsdxID=24;edgeStyle=none;startArrow=none;endArrow=none;startSize=5;endSize=5;strokeColor=#000000;spacingTop=0;spacingBottom=0;spacingLeft=0;spacingRight=0;verticalAlign=middle;html=1;labelBackgroundColor=#ffffff;rounded=0;strokeWidth=1;" parent="flblZkYbyNQ9tiGkdh4v-29" edge="1">
          <mxGeometry relative="1" as="geometry">
            <Array as="points" />
            <mxPoint x="260" y="120" as="sourcePoint" />
            <mxPoint y="120" as="targetPoint" />
          </mxGeometry>
        </mxCell>
        <mxCell id="U5MXIK-24vMOK5HsXXuc-76" style="vsdxID=25;edgeStyle=none;startArrow=none;endArrow=none;startSize=5;endSize=5;strokeColor=#000000;spacingTop=0;spacingBottom=0;spacingLeft=0;spacingRight=0;verticalAlign=middle;html=1;labelBackgroundColor=#ffffff;rounded=0;strokeWidth=1;" parent="flblZkYbyNQ9tiGkdh4v-29" edge="1">
          <mxGeometry relative="1" as="geometry">
            <Array as="points" />
            <mxPoint x="260" y="100" as="sourcePoint" />
            <mxPoint y="100" as="targetPoint" />
          </mxGeometry>
        </mxCell>
        <mxCell id="U5MXIK-24vMOK5HsXXuc-77" style="vsdxID=26;edgeStyle=none;startArrow=none;endArrow=none;startSize=5;endSize=5;strokeColor=#000000;spacingTop=0;spacingBottom=0;spacingLeft=0;spacingRight=0;verticalAlign=middle;html=1;labelBackgroundColor=#ffffff;rounded=0;strokeWidth=1;" parent="flblZkYbyNQ9tiGkdh4v-29" edge="1">
          <mxGeometry relative="1" as="geometry">
            <Array as="points" />
            <mxPoint x="260" y="80" as="sourcePoint" />
            <mxPoint y="80" as="targetPoint" />
          </mxGeometry>
        </mxCell>
        <mxCell id="U5MXIK-24vMOK5HsXXuc-78" style="vsdxID=27;edgeStyle=none;startArrow=none;endArrow=none;startSize=5;endSize=5;strokeColor=#000000;spacingTop=0;spacingBottom=0;spacingLeft=0;spacingRight=0;verticalAlign=middle;html=1;labelBackgroundColor=#ffffff;rounded=0;strokeWidth=1;" parent="flblZkYbyNQ9tiGkdh4v-29" edge="1">
          <mxGeometry relative="1" as="geometry">
            <Array as="points" />
            <mxPoint x="260" y="40" as="sourcePoint" />
            <mxPoint y="40" as="targetPoint" />
          </mxGeometry>
        </mxCell>
        <mxCell id="U5MXIK-24vMOK5HsXXuc-79" style="vsdxID=28;edgeStyle=none;startArrow=none;endArrow=none;startSize=5;endSize=5;strokeColor=#000000;spacingTop=0;spacingBottom=0;spacingLeft=0;spacingRight=0;verticalAlign=middle;html=1;labelBackgroundColor=#ffffff;rounded=0;strokeWidth=1;" parent="flblZkYbyNQ9tiGkdh4v-29" edge="1">
          <mxGeometry relative="1" as="geometry">
            <Array as="points" />
            <mxPoint x="260" y="20" as="sourcePoint" />
            <mxPoint y="20" as="targetPoint" />
          </mxGeometry>
        </mxCell>
        <mxCell id="U5MXIK-24vMOK5HsXXuc-80" style="vsdxID=29;edgeStyle=none;startArrow=none;endArrow=none;startSize=5;endSize=5;strokeColor=#000000;spacingTop=0;spacingBottom=0;spacingLeft=0;spacingRight=0;verticalAlign=middle;html=1;labelBackgroundColor=#ffffff;rounded=0;strokeWidth=1;" parent="flblZkYbyNQ9tiGkdh4v-29" edge="1">
          <mxGeometry relative="1" as="geometry">
            <Array as="points" />
            <mxPoint x="700" y="140" as="sourcePoint" />
            <mxPoint x="500" y="140" as="targetPoint" />
          </mxGeometry>
        </mxCell>
        <mxCell id="U5MXIK-24vMOK5HsXXuc-81" style="vsdxID=30;edgeStyle=none;startArrow=none;endArrow=none;startSize=5;endSize=5;strokeColor=#000000;spacingTop=0;spacingBottom=0;spacingLeft=0;spacingRight=0;verticalAlign=middle;html=1;labelBackgroundColor=#ffffff;rounded=0;strokeWidth=1;" parent="flblZkYbyNQ9tiGkdh4v-29" edge="1">
          <mxGeometry relative="1" as="geometry">
            <Array as="points" />
            <mxPoint x="700" y="80" as="sourcePoint" />
            <mxPoint x="500" y="80" as="targetPoint" />
          </mxGeometry>
        </mxCell>
        <mxCell id="U5MXIK-24vMOK5HsXXuc-82" style="vsdxID=31;edgeStyle=none;startArrow=none;endArrow=none;startSize=5;endSize=5;strokeColor=#000000;spacingTop=0;spacingBottom=0;spacingLeft=0;spacingRight=0;verticalAlign=middle;html=1;labelBackgroundColor=#ffffff;rounded=0;strokeWidth=1;" parent="flblZkYbyNQ9tiGkdh4v-29" edge="1">
          <mxGeometry relative="1" as="geometry">
            <mxPoint x="10" as="offset" />
            <Array as="points" />
            <mxPoint x="220" y="220" as="sourcePoint" />
            <mxPoint x="220" as="targetPoint" />
          </mxGeometry>
        </mxCell>
        <mxCell id="U5MXIK-24vMOK5HsXXuc-83" style="vsdxID=33;edgeStyle=none;startArrow=none;endArrow=none;startSize=5;endSize=5;strokeColor=#000000;spacingTop=0;spacingBottom=0;spacingLeft=0;spacingRight=0;verticalAlign=middle;html=1;labelBackgroundColor=#ffffff;rounded=0;strokeWidth=1;" parent="flblZkYbyNQ9tiGkdh4v-29" edge="1">
          <mxGeometry relative="1" as="geometry">
            <mxPoint x="10" as="offset" />
            <Array as="points" />
            <mxPoint x="160" y="220" as="sourcePoint" />
            <mxPoint x="160" as="targetPoint" />
          </mxGeometry>
        </mxCell>
        <mxCell id="U5MXIK-24vMOK5HsXXuc-84" style="vsdxID=34;edgeStyle=none;startArrow=none;endArrow=none;startSize=5;endSize=5;strokeColor=#000000;spacingTop=0;spacingBottom=0;spacingLeft=0;spacingRight=0;verticalAlign=middle;html=1;labelBackgroundColor=#ffffff;rounded=0;strokeWidth=1;" parent="flblZkYbyNQ9tiGkdh4v-29" edge="1">
          <mxGeometry relative="1" as="geometry">
            <mxPoint x="10" as="offset" />
            <Array as="points" />
            <mxPoint x="70" y="220" as="sourcePoint" />
            <mxPoint x="70" as="targetPoint" />
          </mxGeometry>
        </mxCell>
        <mxCell id="U5MXIK-24vMOK5HsXXuc-85" style="vsdxID=35;edgeStyle=none;startArrow=none;endArrow=none;startSize=5;endSize=5;strokeColor=#000000;spacingTop=0;spacingBottom=0;spacingLeft=0;spacingRight=0;verticalAlign=middle;html=1;labelBackgroundColor=#ffffff;rounded=0;strokeWidth=1;" parent="flblZkYbyNQ9tiGkdh4v-29" edge="1">
          <mxGeometry relative="1" as="geometry">
            <mxPoint x="10" as="offset" />
            <Array as="points" />
            <mxPoint x="30" y="100" as="sourcePoint" />
            <mxPoint x="30" as="targetPoint" />
          </mxGeometry>
        </mxCell>
        <mxCell id="U5MXIK-24vMOK5HsXXuc-86" style="vsdxID=36;edgeStyle=none;startArrow=none;endArrow=none;startSize=5;endSize=5;strokeColor=#000000;spacingTop=0;spacingBottom=0;spacingLeft=0;spacingRight=0;verticalAlign=middle;html=1;labelBackgroundColor=#ffffff;rounded=0;strokeWidth=1;" parent="flblZkYbyNQ9tiGkdh4v-29" edge="1">
          <mxGeometry relative="1" as="geometry">
            <mxPoint x="10" as="offset" />
            <Array as="points" />
            <mxPoint x="560" y="140" as="sourcePoint" />
            <mxPoint x="560" y="60" as="targetPoint" />
          </mxGeometry>
        </mxCell>
        <mxCell id="U5MXIK-24vMOK5HsXXuc-87" style="vsdxID=38;edgeStyle=none;startArrow=none;endArrow=none;startSize=5;endSize=5;strokeColor=#000000;spacingTop=0;spacingBottom=0;spacingLeft=0;spacingRight=0;verticalAlign=middle;html=1;labelBackgroundColor=#ffffff;rounded=0;strokeWidth=1;" parent="flblZkYbyNQ9tiGkdh4v-29" edge="1">
          <mxGeometry relative="1" as="geometry">
            <mxPoint x="10" as="offset" />
            <Array as="points" />
            <mxPoint x="620" y="140" as="sourcePoint" />
            <mxPoint x="620" y="60" as="targetPoint" />
          </mxGeometry>
        </mxCell>
        <mxCell id="U5MXIK-24vMOK5HsXXuc-88" style="vsdxID=39;edgeStyle=none;startArrow=none;endArrow=none;startSize=5;endSize=5;strokeColor=#000000;spacingTop=0;spacingBottom=0;spacingLeft=0;spacingRight=0;verticalAlign=middle;html=1;labelBackgroundColor=#ffffff;rounded=0;strokeWidth=1;" parent="flblZkYbyNQ9tiGkdh4v-29" edge="1">
          <mxGeometry relative="1" as="geometry">
            <mxPoint x="10" as="offset" />
            <Array as="points" />
            <mxPoint x="520" y="140" as="sourcePoint" />
            <mxPoint x="520" y="80" as="targetPoint" />
          </mxGeometry>
        </mxCell>
        <mxCell id="U5MXIK-24vMOK5HsXXuc-89" style="vsdxID=40;edgeStyle=none;startArrow=none;endArrow=none;startSize=5;endSize=5;strokeColor=#000000;spacingTop=0;spacingBottom=0;spacingLeft=0;spacingRight=0;verticalAlign=middle;html=1;labelBackgroundColor=#ffffff;rounded=0;strokeWidth=1;" parent="flblZkYbyNQ9tiGkdh4v-29" edge="1">
          <mxGeometry relative="1" as="geometry">
            <mxPoint x="10" as="offset" />
            <Array as="points" />
            <mxPoint x="540" y="140" as="sourcePoint" />
            <mxPoint x="540" y="80" as="targetPoint" />
          </mxGeometry>
        </mxCell>
        <mxCell id="U5MXIK-24vMOK5HsXXuc-6" value="&lt;p style=&quot;margin-left: 0 ; margin-right: 0 ; margin-top: 0px ; margin-bottom: 0px ; text-indent: 0 ; direction: ltr&quot;&gt;&lt;font style=&quot;font-family: &amp;#34;times new roman&amp;#34; ; color: rgb(0 , 0 , 0) ; direction: ltr ; letter-spacing: 0px ; line-height: 140% ; opacity: 1&quot; size=&quot;1&quot;&gt;&lt;i&gt;Лист&lt;/i&gt;&lt;/font&gt;&lt;font style=&quot;font-size: 12px ; font-family: &amp;#34;times new roman&amp;#34; ; color: #000000 ; direction: ltr ; letter-spacing: 0px ; line-height: 140% ; opacity: 1&quot;&gt;&lt;br&gt;&lt;/font&gt;&lt;/p&gt;" style="verticalAlign=middle;align=center;vsdxID=47;fillColor=none;gradientColor=none;shape=stencil(nZBLDoAgDERP0z3SIyjew0SURgSD+Lu9kMZoXLhwN9O+tukAlrNpJg1SzDH4QW/URgNYgZTkjA4UkwJUgGXng+6DX1zLfmoymdXo17xh5zmRJ6Q42BWCfc2oJfdAr+Yv+AP9Cb7OJ3H/2JG1HNGz/84klThPVCc=);strokeColor=none;labelBackgroundColor=none;rounded=0;html=1;whiteSpace=wrap;strokeWidth=1;" parent="flblZkYbyNQ9tiGkdh4v-29" vertex="1">
          <mxGeometry x="500" y="140" width="40" height="20" as="geometry" />
        </mxCell>
        <mxCell id="flblZkYbyNQ9tiGkdh4v-3" value="&lt;p style=&quot;margin-left: 0 ; margin-right: 0 ; margin-top: 0px ; margin-bottom: 0px ; text-indent: 0 ; direction: ltr&quot;&gt;&lt;font style=&quot;font-family: &amp;#34;times new roman&amp;#34; ; color: rgb(0 , 0 , 0) ; direction: ltr ; letter-spacing: 0px ; line-height: 140% ; opacity: 1&quot; size=&quot;1&quot;&gt;&lt;i&gt;Листов&lt;/i&gt;&lt;/font&gt;&lt;font style=&quot;font-size: 12px ; font-family: &amp;#34;times new roman&amp;#34; ; color: #000000 ; direction: ltr ; letter-spacing: 0px ; line-height: 140% ; opacity: 1&quot;&gt;&lt;br&gt;&lt;/font&gt;&lt;/p&gt;" style="verticalAlign=middle;align=center;vsdxID=47;fillColor=none;gradientColor=none;shape=stencil(nZBLDoAgDERP0z3SIyjew0SURgSD+Lu9kMZoXLhwN9O+tukAlrNpJg1SzDH4QW/URgNYgZTkjA4UkwJUgGXng+6DX1zLfmoymdXo17xh5zmRJ6Q42BWCfc2oJfdAr+Yv+AP9Cb7OJ3H/2JG1HNGz/84klThPVCc=);strokeColor=none;labelBackgroundColor=none;rounded=0;html=1;whiteSpace=wrap;strokeWidth=1;" parent="flblZkYbyNQ9tiGkdh4v-29" vertex="1">
          <mxGeometry x="580" y="140" width="50" height="20" as="geometry" />
        </mxCell>
        <mxCell id="flblZkYbyNQ9tiGkdh4v-5" value="&lt;p style=&quot;margin-left: 0 ; margin-right: 0 ; margin-top: 0px ; margin-bottom: 0px ; text-indent: 0 ; direction: ltr&quot;&gt;&lt;font style=&quot;font-family: &amp;#34;times new roman&amp;#34; ; color: rgb(0 , 0 , 0) ; direction: ltr ; letter-spacing: 0px ; line-height: 140% ; opacity: 1&quot; size=&quot;1&quot;&gt;&lt;i&gt;1&lt;/i&gt;&lt;/font&gt;&lt;font style=&quot;font-size: 12px ; font-family: &amp;#34;times new roman&amp;#34; ; color: #000000 ; direction: ltr ; letter-spacing: 0px ; line-height: 140% ; opacity: 1&quot;&gt;&lt;br&gt;&lt;/font&gt;&lt;/p&gt;" style="verticalAlign=middle;align=center;vsdxID=47;fillColor=none;gradientColor=none;shape=stencil(nZBLDoAgDERP0z3SIyjew0SURgSD+Lu9kMZoXLhwN9O+tukAlrNpJg1SzDH4QW/URgNYgZTkjA4UkwJUgGXng+6DX1zLfmoymdXo17xh5zmRJ6Q42BWCfc2oJfdAr+Yv+AP9Cb7OJ3H/2JG1HNGz/84klThPVCc=);strokeColor=none;labelBackgroundColor=none;rounded=0;html=1;whiteSpace=wrap;strokeWidth=1;" parent="flblZkYbyNQ9tiGkdh4v-29" vertex="1">
          <mxGeometry x="670" y="140" width="30" height="20" as="geometry" />
        </mxCell>
        <mxCell id="flblZkYbyNQ9tiGkdh4v-6" value="&lt;p style=&quot;margin-left: 0 ; margin-right: 0 ; margin-top: 0px ; margin-bottom: 0px ; text-indent: 0 ; direction: ltr&quot;&gt;&lt;font style=&quot;font-family: &amp;#34;times new roman&amp;#34; ; color: rgb(0 , 0 , 0) ; direction: ltr ; letter-spacing: 0px ; line-height: 140% ; opacity: 1&quot; size=&quot;1&quot;&gt;&lt;i&gt;1&lt;/i&gt;&lt;/font&gt;&lt;font style=&quot;font-size: 12px ; font-family: &amp;#34;times new roman&amp;#34; ; color: #000000 ; direction: ltr ; letter-spacing: 0px ; line-height: 140% ; opacity: 1&quot;&gt;&lt;br&gt;&lt;/font&gt;&lt;/p&gt;" style="verticalAlign=middle;align=center;vsdxID=47;fillColor=none;gradientColor=none;shape=stencil(nZBLDoAgDERP0z3SIyjew0SURgSD+Lu9kMZoXLhwN9O+tukAlrNpJg1SzDH4QW/URgNYgZTkjA4UkwJUgGXng+6DX1zLfmoymdXo17xh5zmRJ6Q42BWCfc2oJfdAr+Yv+AP9Cb7OJ3H/2JG1HNGz/84klThPVCc=);strokeColor=none;labelBackgroundColor=none;rounded=0;html=1;whiteSpace=wrap;strokeWidth=1;" parent="flblZkYbyNQ9tiGkdh4v-29" vertex="1">
          <mxGeometry x="550" y="140" width="30" height="20" as="geometry" />
        </mxCell>
        <mxCell id="flblZkYbyNQ9tiGkdh4v-7" value="&lt;p style=&quot;margin-left: 0 ; margin-right: 0 ; margin-top: 0px ; margin-bottom: 0px ; text-indent: 0 ; direction: ltr&quot;&gt;&lt;font style=&quot;font-family: &amp;#34;times new roman&amp;#34; ; color: rgb(0 , 0 , 0) ; direction: ltr ; letter-spacing: 0px ; line-height: 140% ; opacity: 1&quot; size=&quot;1&quot;&gt;&lt;i&gt;Масса&lt;/i&gt;&lt;/font&gt;&lt;font style=&quot;font-size: 12px ; font-family: &amp;#34;times new roman&amp;#34; ; color: #000000 ; direction: ltr ; letter-spacing: 0px ; line-height: 140% ; opacity: 1&quot;&gt;&lt;br&gt;&lt;/font&gt;&lt;/p&gt;" style="verticalAlign=middle;align=center;vsdxID=46;fillColor=none;gradientColor=none;shape=stencil(nZBLDoAgDERP0z3SIyjew0SURgSD+Lu9kMZoXLhwN9O+tukAlrNpJg1SzDH4QW/URgNYgZTkjA4UkwJUgGXng+6DX1zLfmoymdXo17xh5zmRJ6Q42BWCfc2oJfdAr+Yv+AP9Cb7OJ3H/2JG1HNGz/84klThPVCc=);strokeColor=none;labelBackgroundColor=none;rounded=0;html=1;whiteSpace=wrap;strokeWidth=1;" parent="flblZkYbyNQ9tiGkdh4v-29" vertex="1">
          <mxGeometry x="560" y="60" width="60" height="20" as="geometry" />
        </mxCell>
        <mxCell id="flblZkYbyNQ9tiGkdh4v-8" value="&lt;p style=&quot;margin-left: 0 ; margin-right: 0 ; margin-top: 0px ; margin-bottom: 0px ; text-indent: 0 ; direction: ltr&quot;&gt;&lt;font style=&quot;font-family: &amp;#34;times new roman&amp;#34; ; color: rgb(0 , 0 , 0) ; direction: ltr ; letter-spacing: 0px ; line-height: 140% ; opacity: 1&quot; size=&quot;1&quot;&gt;&lt;i&gt;Масштаб&lt;/i&gt;&lt;/font&gt;&lt;font style=&quot;font-size: 12px ; font-family: &amp;#34;times new roman&amp;#34; ; color: #000000 ; direction: ltr ; letter-spacing: 0px ; line-height: 140% ; opacity: 1&quot;&gt;&lt;br&gt;&lt;/font&gt;&lt;/p&gt;" style="verticalAlign=middle;align=center;vsdxID=46;fillColor=none;gradientColor=none;shape=stencil(nZBLDoAgDERP0z3SIyjew0SURgSD+Lu9kMZoXLhwN9O+tukAlrNpJg1SzDH4QW/URgNYgZTkjA4UkwJUgGXng+6DX1zLfmoymdXo17xh5zmRJ6Q42BWCfc2oJfdAr+Yv+AP9Cb7OJ3H/2JG1HNGz/84klThPVCc=);strokeColor=none;labelBackgroundColor=none;rounded=0;html=1;whiteSpace=wrap;strokeWidth=1;" parent="flblZkYbyNQ9tiGkdh4v-29" vertex="1">
          <mxGeometry x="620" y="60" width="80" height="20" as="geometry" />
        </mxCell>
        <mxCell id="U5MXIK-24vMOK5HsXXuc-8" value="&lt;p style=&quot;margin-left: 0 ; margin-right: 0 ; margin-top: 0px ; margin-bottom: 0px ; text-indent: 0 ; direction: ltr&quot;&gt;&lt;font style=&quot;font-family: &amp;#34;times new roman&amp;#34; ; color: rgb(0 , 0 , 0) ; direction: ltr ; letter-spacing: 0px ; line-height: 140% ; opacity: 1&quot; size=&quot;1&quot;&gt;&lt;i style=&quot;font-size: 12px&quot;&gt;ПОИТ гр. 151004&lt;/i&gt;&lt;/font&gt;&lt;font style=&quot;font-size: 16px ; font-family: &amp;#34;times new roman&amp;#34; ; color: #000000 ; direction: ltr ; letter-spacing: 0px ; line-height: 140% ; opacity: 1&quot;&gt;&lt;br&gt;&lt;/font&gt;&lt;/p&gt;" style="verticalAlign=middle;align=center;vsdxID=49;fillColor=none;gradientColor=none;shape=stencil(nZBLDoAgDERP0z3SIyjew0SURgSD+Lu9kMZoXLhwN9O+tukAlrNpJg1SzDH4QW/URgNYgZTkjA4UkwJUgGXng+6DX1zLfmoymdXo17xh5zmRJ6Q42BWCfc2oJfdAr+Yv+AP9Cb7OJ3H/2JG1HNGz/84klThPVCc=);strokeColor=none;labelBackgroundColor=none;rounded=0;html=1;whiteSpace=wrap;strokeWidth=1;" parent="flblZkYbyNQ9tiGkdh4v-29" vertex="1">
          <mxGeometry x="500" y="160" width="200" height="60" as="geometry" />
        </mxCell>
        <mxCell id="flblZkYbyNQ9tiGkdh4v-12" value="&lt;p style=&quot;margin-left: 0 ; margin-right: 0 ; margin-top: 0px ; margin-bottom: 0px ; text-indent: 0 ; direction: ltr&quot;&gt;&lt;font style=&quot;font-family: &amp;#34;times new roman&amp;#34; ; color: rgb(0 , 0 , 0) ; direction: ltr ; letter-spacing: 0px ; line-height: 140% ; opacity: 1&quot; size=&quot;1&quot;&gt;&lt;i&gt;Изм.&lt;/i&gt;&lt;/font&gt;&lt;font style=&quot;font-size: 12px ; font-family: &amp;#34;times new roman&amp;#34; ; color: #000000 ; direction: ltr ; letter-spacing: 0px ; line-height: 140% ; opacity: 1&quot;&gt;&lt;br&gt;&lt;/font&gt;&lt;/p&gt;" style="verticalAlign=middle;align=center;vsdxID=45;fillColor=none;gradientColor=none;shape=stencil(nZBLDoAgDERP0z3SIyjew0SURgSD+Lu9kMZoXLhwN9O+tukAlrNpJg1SzDH4QW/URgNYgZTkjA4UkwJUgGXng+6DX1zLfmoymdXo17xh5zmRJ6Q42BWCfc2oJfdAr+Yv+AP9Cb7OJ3H/2JG1HNGz/84klThPVCc=);strokeColor=none;labelBackgroundColor=none;rounded=0;html=1;whiteSpace=wrap;strokeWidth=1;" parent="flblZkYbyNQ9tiGkdh4v-29" vertex="1">
          <mxGeometry y="80" width="30" height="20" as="geometry" />
        </mxCell>
        <mxCell id="flblZkYbyNQ9tiGkdh4v-19" value="&lt;p style=&quot;margin-left: 0 ; margin-right: 0 ; margin-top: 0px ; margin-bottom: 0px ; text-indent: 0 ; direction: ltr&quot;&gt;&lt;font face=&quot;Times New Roman&quot;&gt;Дубовский А.В&lt;/font&gt;&lt;/p&gt;" style="verticalAlign=middle;align=center;vsdxID=41;fillColor=none;gradientColor=none;shape=stencil(nZBLDoAgDERP0z3SIyjew0SURgSD+Lu9kMZoXLhwN9O+tukAlrNpJg1SzDH4QW/URgNYgZTkjA4UkwJUgGXng+6DX1zLfmoymdXo17xh5zmRJ6Q42BWCfc2oJfdAr+Yv+AP9Cb7OJ3H/2JG1HNGz/84klThPVCc=);strokeColor=none;labelBackgroundColor=none;rounded=0;html=1;whiteSpace=wrap;strokeWidth=1;" parent="flblZkYbyNQ9tiGkdh4v-29" vertex="1">
          <mxGeometry x="70" y="100" width="90" height="20" as="geometry" />
        </mxCell>
        <mxCell id="ORajsjJcxbQu_IU-mkYe-1" value="&lt;font face=&quot;Times New Roman&quot; size=&quot;1&quot;&gt;Т. Контроль&lt;/font&gt;" style="text;html=1;align=left;verticalAlign=middle;resizable=0;points=[];autosize=1;strokeColor=none;strokeWidth=1;fontStyle=2" parent="flblZkYbyNQ9tiGkdh4v-29" vertex="1">
          <mxGeometry y="140" width="70" height="20" as="geometry" />
        </mxCell>
        <mxCell id="ORajsjJcxbQu_IU-mkYe-2" value="&lt;span style=&quot;font-family: &amp;quot;times new roman&amp;quot; ; font-size: 10px&quot;&gt;Н. Контроль&lt;/span&gt;" style="text;html=1;align=left;verticalAlign=middle;resizable=0;points=[];autosize=1;strokeColor=none;strokeWidth=1;fontStyle=2" parent="flblZkYbyNQ9tiGkdh4v-29" vertex="1">
          <mxGeometry y="160" width="70" height="20" as="geometry" />
        </mxCell>
        <mxCell id="ORajsjJcxbQu_IU-mkYe-3" value="&lt;font face=&quot;Times New Roman&quot; style=&quot;font-size: 10px&quot;&gt;Утв.&lt;/font&gt;" style="text;html=1;align=left;verticalAlign=middle;resizable=0;points=[];autosize=1;strokeColor=none;strokeWidth=1;fontStyle=2" parent="flblZkYbyNQ9tiGkdh4v-29" vertex="1">
          <mxGeometry y="180" width="40" height="20" as="geometry" />
        </mxCell>
        <mxCell id="ORajsjJcxbQu_IU-mkYe-4" value="&lt;font face=&quot;Times New Roman&quot; style=&quot;font-size: 10px&quot;&gt;Реценз&lt;/font&gt;" style="text;html=1;align=left;verticalAlign=middle;resizable=0;points=[];autosize=1;strokeColor=none;strokeWidth=1;fontStyle=2" parent="flblZkYbyNQ9tiGkdh4v-29" vertex="1">
          <mxGeometry y="200" width="40" height="20" as="geometry" />
        </mxCell>
        <mxCell id="r4EkMSD5H6vDeUgWiK47-10" value="&lt;p style=&quot;margin-left: 0 ; margin-right: 0 ; margin-top: 0px ; margin-bottom: 0px ; text-indent: 0 ; direction: ltr&quot;&gt;&lt;font style=&quot;font-size: 14px ; font-family: &amp;#34;times new roman&amp;#34; ; color: #000000 ; direction: ltr ; letter-spacing: 0px ; line-height: 140% ; opacity: 1&quot;&gt;&lt;br&gt;&lt;/font&gt;&lt;/p&gt;" style="verticalAlign=middle;align=center;vsdxID=41;fillColor=none;gradientColor=none;shape=stencil(nZBLDoAgDERP0z3SIyjew0SURgSD+Lu9kMZoXLhwN9O+tukAlrNpJg1SzDH4QW/URgNYgZTkjA4UkwJUgGXng+6DX1zLfmoymdXo17xh5zmRJ6Q42BWCfc2oJfdAr+Yv+AP9Cb7OJ3H/2JG1HNGz/84klThPVCc=);strokeColor=none;labelBackgroundColor=none;rounded=0;html=1;whiteSpace=wrap;strokeWidth=1;" parent="flblZkYbyNQ9tiGkdh4v-29" vertex="1">
          <mxGeometry x="70" y="160" width="90" height="20" as="geometry" />
        </mxCell>
        <mxCell id="r4EkMSD5H6vDeUgWiK47-11" value="&lt;p style=&quot;margin-left: 0 ; margin-right: 0 ; margin-top: 0px ; margin-bottom: 0px ; text-indent: 0 ; direction: ltr&quot;&gt;&lt;font style=&quot;font-size: 14px ; font-family: &amp;#34;times new roman&amp;#34; ; color: #000000 ; direction: ltr ; letter-spacing: 0px ; line-height: 140% ; opacity: 1&quot;&gt;&lt;br&gt;&lt;/font&gt;&lt;/p&gt;" style="verticalAlign=middle;align=center;vsdxID=41;fillColor=none;gradientColor=none;shape=stencil(nZBLDoAgDERP0z3SIyjew0SURgSD+Lu9kMZoXLhwN9O+tukAlrNpJg1SzDH4QW/URgNYgZTkjA4UkwJUgGXng+6DX1zLfmoymdXo17xh5zmRJ6Q42BWCfc2oJfdAr+Yv+AP9Cb7OJ3H/2JG1HNGz/84klThPVCc=);strokeColor=none;labelBackgroundColor=none;rounded=0;html=1;whiteSpace=wrap;strokeWidth=1;" parent="flblZkYbyNQ9tiGkdh4v-29" vertex="1">
          <mxGeometry x="70" y="180" width="90" height="20" as="geometry" />
        </mxCell>
        <mxCell id="ORajsjJcxbQu_IU-mkYe-6" value="&lt;font style=&quot;font-size: 8px&quot;&gt;У&lt;/font&gt;" style="text;html=1;align=center;verticalAlign=middle;resizable=0;points=[];autosize=1;strokeColor=none;strokeWidth=1;fontStyle=2" parent="1" vertex="1">
          <mxGeometry x="3080" y="2180" width="20" height="20" as="geometry" />
        </mxCell>
        <mxCell id="iOMKYeSVAjSAsyUt3DUM-2" value="Вход&lt;br&gt;Получение данных с сервера&amp;nbsp;" style="rounded=1;whiteSpace=wrap;html=1;arcSize=50;fontFamily=Times New Roman;fontSize=26;strokeWidth=1;" vertex="1" parent="1">
          <mxGeometry x="700" y="130" width="400" height="80" as="geometry" />
        </mxCell>
        <mxCell id="iOMKYeSVAjSAsyUt3DUM-3" value="1" style="text;html=1;strokeColor=none;fillColor=none;align=center;verticalAlign=middle;whiteSpace=wrap;rounded=0;fontSize=26;fontFamily=Times New Roman;strokeWidth=1;" vertex="1" parent="1">
          <mxGeometry x="700" y="100" width="50" height="30" as="geometry" />
        </mxCell>
        <mxCell id="iOMKYeSVAjSAsyUt3DUM-4" value="2" style="text;html=1;strokeColor=none;fillColor=none;align=center;verticalAlign=middle;whiteSpace=wrap;rounded=0;fontSize=26;fontFamily=Times New Roman;strokeWidth=1;" vertex="1" parent="1">
          <mxGeometry x="700" y="260" width="50" height="30" as="geometry" />
        </mxCell>
        <mxCell id="iOMKYeSVAjSAsyUt3DUM-5" value="&lt;font style=&quot;font-size: 26px;&quot; face=&quot;Times New Roman&quot;&gt;Создание сокета&lt;/font&gt;" style="shape=process;whiteSpace=wrap;html=1;backgroundOutline=1;" vertex="1" parent="1">
          <mxGeometry x="700" y="290" width="400" height="80" as="geometry" />
        </mxCell>
        <mxCell id="iOMKYeSVAjSAsyUt3DUM-6" value="3" style="text;html=1;strokeColor=none;fillColor=none;align=center;verticalAlign=middle;whiteSpace=wrap;rounded=0;fontSize=26;fontFamily=Times New Roman;strokeWidth=1;" vertex="1" parent="1">
          <mxGeometry x="700" y="420" width="50" height="30" as="geometry" />
        </mxCell>
        <mxCell id="iOMKYeSVAjSAsyUt3DUM-7" value="&lt;font style=&quot;font-size: 26px;&quot; face=&quot;Times New Roman&quot;&gt;Прослушивание порта&lt;/font&gt;" style="shape=process;whiteSpace=wrap;html=1;backgroundOutline=1;" vertex="1" parent="1">
          <mxGeometry x="700" y="450" width="400" height="80" as="geometry" />
        </mxCell>
        <mxCell id="iOMKYeSVAjSAsyUt3DUM-8" value="4" style="text;html=1;strokeColor=none;fillColor=none;align=center;verticalAlign=middle;whiteSpace=wrap;rounded=0;fontSize=26;fontFamily=Times New Roman;strokeWidth=1;" vertex="1" parent="1">
          <mxGeometry x="700" y="580" width="50" height="30" as="geometry" />
        </mxCell>
        <mxCell id="iOMKYeSVAjSAsyUt3DUM-9" value="&lt;font style=&quot;font-size: 26px;&quot; face=&quot;Times New Roman&quot;&gt;Чтение данных с порта&lt;/font&gt;" style="shape=process;whiteSpace=wrap;html=1;backgroundOutline=1;" vertex="1" parent="1">
          <mxGeometry x="700" y="610" width="400" height="80" as="geometry" />
        </mxCell>
        <mxCell id="iOMKYeSVAjSAsyUt3DUM-10" value="&lt;font face=&quot;Times New Roman&quot; style=&quot;font-size: 26px;&quot;&gt;А1&lt;br&gt;Не все данные разграничены&lt;br&gt;&lt;/font&gt;" style="strokeWidth=2;html=1;shape=mxgraph.flowchart.loop_limit;whiteSpace=wrap;" vertex="1" parent="1">
          <mxGeometry x="700" y="770" width="400" height="80" as="geometry" />
        </mxCell>
        <mxCell id="iOMKYeSVAjSAsyUt3DUM-11" value="5" style="text;html=1;strokeColor=none;fillColor=none;align=center;verticalAlign=middle;whiteSpace=wrap;rounded=0;fontSize=26;fontFamily=Times New Roman;strokeWidth=1;" vertex="1" parent="1">
          <mxGeometry x="700" y="740" width="50" height="30" as="geometry" />
        </mxCell>
        <mxCell id="iOMKYeSVAjSAsyUt3DUM-12" value="&lt;font face=&quot;Times New Roman&quot; style=&quot;font-size: 26px;&quot;&gt;&lt;br&gt;А1&lt;br&gt;&lt;/font&gt;" style="strokeWidth=2;html=1;shape=mxgraph.flowchart.loop_limit;whiteSpace=wrap;flipH=0;flipV=1;" vertex="1" parent="1">
          <mxGeometry x="700" y="1090" width="400" height="80" as="geometry" />
        </mxCell>
        <mxCell id="iOMKYeSVAjSAsyUt3DUM-13" value="7" style="text;html=1;strokeColor=none;fillColor=none;align=center;verticalAlign=middle;whiteSpace=wrap;rounded=0;fontSize=26;fontFamily=Times New Roman;strokeWidth=1;" vertex="1" parent="1">
          <mxGeometry x="700" y="1060" width="50" height="30" as="geometry" />
        </mxCell>
        <mxCell id="iOMKYeSVAjSAsyUt3DUM-14" value="Разграничение данных" style="rounded=0;whiteSpace=wrap;html=1;fontSize=26;fontFamily=Times New Roman;strokeWidth=1;" vertex="1" parent="1">
          <mxGeometry x="700" y="930" width="400" height="80" as="geometry" />
        </mxCell>
        <mxCell id="iOMKYeSVAjSAsyUt3DUM-15" value="6" style="text;html=1;strokeColor=none;fillColor=none;align=center;verticalAlign=middle;whiteSpace=wrap;rounded=0;fontSize=26;fontFamily=Times New Roman;strokeWidth=1;" vertex="1" parent="1">
          <mxGeometry x="700" y="900" width="50" height="30" as="geometry" />
        </mxCell>
        <mxCell id="iOMKYeSVAjSAsyUt3DUM-18" value="&lt;font face=&quot;Times New Roman&quot; style=&quot;font-size: 26px;&quot;&gt;А2&lt;br&gt;Не все танки изменены&lt;br&gt;&lt;/font&gt;" style="strokeWidth=2;html=1;shape=mxgraph.flowchart.loop_limit;whiteSpace=wrap;" vertex="1" parent="1">
          <mxGeometry x="700" y="1250" width="400" height="80" as="geometry" />
        </mxCell>
        <mxCell id="iOMKYeSVAjSAsyUt3DUM-19" value="8" style="text;html=1;strokeColor=none;fillColor=none;align=center;verticalAlign=middle;whiteSpace=wrap;rounded=0;fontSize=26;fontFamily=Times New Roman;strokeWidth=1;" vertex="1" parent="1">
          <mxGeometry x="700" y="1220" width="50" height="30" as="geometry" />
        </mxCell>
        <mxCell id="iOMKYeSVAjSAsyUt3DUM-20" value="&lt;font face=&quot;Times New Roman&quot; style=&quot;font-size: 26px;&quot;&gt;&lt;br&gt;А2&lt;br&gt;&lt;/font&gt;" style="strokeWidth=2;html=1;shape=mxgraph.flowchart.loop_limit;whiteSpace=wrap;flipH=0;flipV=1;" vertex="1" parent="1">
          <mxGeometry x="700" y="1730" width="400" height="80" as="geometry" />
        </mxCell>
        <mxCell id="iOMKYeSVAjSAsyUt3DUM-21" value="11" style="text;html=1;strokeColor=none;fillColor=none;align=center;verticalAlign=middle;whiteSpace=wrap;rounded=0;fontSize=26;fontFamily=Times New Roman;strokeWidth=1;" vertex="1" parent="1">
          <mxGeometry x="700" y="1700" width="50" height="30" as="geometry" />
        </mxCell>
        <mxCell id="iOMKYeSVAjSAsyUt3DUM-22" value="Изменение значений танков" style="rounded=0;whiteSpace=wrap;html=1;fontSize=26;fontFamily=Times New Roman;strokeWidth=1;" vertex="1" parent="1">
          <mxGeometry x="700" y="1570" width="400" height="80" as="geometry" />
        </mxCell>
        <mxCell id="iOMKYeSVAjSAsyUt3DUM-23" value="10" style="text;html=1;strokeColor=none;fillColor=none;align=center;verticalAlign=middle;whiteSpace=wrap;rounded=0;fontSize=26;fontFamily=Times New Roman;strokeWidth=1;" vertex="1" parent="1">
          <mxGeometry x="700" y="1540" width="50" height="30" as="geometry" />
        </mxCell>
        <mxCell id="iOMKYeSVAjSAsyUt3DUM-36" value="Получение из данных значений &lt;br&gt;для танков" style="rounded=0;whiteSpace=wrap;html=1;fontSize=26;fontFamily=Times New Roman;strokeWidth=1;" vertex="1" parent="1">
          <mxGeometry x="700" y="1410" width="400" height="80" as="geometry" />
        </mxCell>
        <mxCell id="iOMKYeSVAjSAsyUt3DUM-37" value="9" style="text;html=1;strokeColor=none;fillColor=none;align=center;verticalAlign=middle;whiteSpace=wrap;rounded=0;fontSize=26;fontFamily=Times New Roman;strokeWidth=1;" vertex="1" parent="1">
          <mxGeometry x="700" y="1380" width="50" height="30" as="geometry" />
        </mxCell>
        <mxCell id="iOMKYeSVAjSAsyUt3DUM-38" value="&lt;font face=&quot;Times New Roman&quot; style=&quot;font-size: 26px;&quot;&gt;А3&lt;br&gt;Не все снаряды изменены&lt;br&gt;&lt;/font&gt;" style="strokeWidth=2;html=1;shape=mxgraph.flowchart.loop_limit;whiteSpace=wrap;" vertex="1" parent="1">
          <mxGeometry x="1690" y="280" width="400" height="80" as="geometry" />
        </mxCell>
        <mxCell id="iOMKYeSVAjSAsyUt3DUM-39" value="12" style="text;html=1;strokeColor=none;fillColor=none;align=center;verticalAlign=middle;whiteSpace=wrap;rounded=0;fontSize=26;fontFamily=Times New Roman;strokeWidth=1;" vertex="1" parent="1">
          <mxGeometry x="1690" y="250" width="50" height="30" as="geometry" />
        </mxCell>
        <mxCell id="iOMKYeSVAjSAsyUt3DUM-40" value="&lt;font face=&quot;Times New Roman&quot; style=&quot;font-size: 26px;&quot;&gt;&lt;br&gt;А3&lt;br&gt;&lt;/font&gt;" style="strokeWidth=2;html=1;shape=mxgraph.flowchart.loop_limit;whiteSpace=wrap;flipH=0;flipV=1;" vertex="1" parent="1">
          <mxGeometry x="1690" y="760" width="400" height="80" as="geometry" />
        </mxCell>
        <mxCell id="iOMKYeSVAjSAsyUt3DUM-41" value="15" style="text;html=1;strokeColor=none;fillColor=none;align=center;verticalAlign=middle;whiteSpace=wrap;rounded=0;fontSize=26;fontFamily=Times New Roman;strokeWidth=1;" vertex="1" parent="1">
          <mxGeometry x="1690" y="730" width="50" height="30" as="geometry" />
        </mxCell>
        <mxCell id="iOMKYeSVAjSAsyUt3DUM-42" value="Изменение значений снарядов" style="rounded=0;whiteSpace=wrap;html=1;fontSize=26;fontFamily=Times New Roman;strokeWidth=1;" vertex="1" parent="1">
          <mxGeometry x="1690" y="600" width="400" height="80" as="geometry" />
        </mxCell>
        <mxCell id="iOMKYeSVAjSAsyUt3DUM-43" value="14" style="text;html=1;strokeColor=none;fillColor=none;align=center;verticalAlign=middle;whiteSpace=wrap;rounded=0;fontSize=26;fontFamily=Times New Roman;strokeWidth=1;" vertex="1" parent="1">
          <mxGeometry x="1690" y="570" width="50" height="30" as="geometry" />
        </mxCell>
        <mxCell id="iOMKYeSVAjSAsyUt3DUM-44" value="Получение из данных значений&lt;br&gt;&amp;nbsp;для снарядов" style="rounded=0;whiteSpace=wrap;html=1;fontSize=26;fontFamily=Times New Roman;strokeWidth=1;" vertex="1" parent="1">
          <mxGeometry x="1690" y="440" width="400" height="80" as="geometry" />
        </mxCell>
        <mxCell id="iOMKYeSVAjSAsyUt3DUM-45" value="13" style="text;html=1;strokeColor=none;fillColor=none;align=center;verticalAlign=middle;whiteSpace=wrap;rounded=0;fontSize=26;fontFamily=Times New Roman;strokeWidth=1;" vertex="1" parent="1">
          <mxGeometry x="1690" y="410" width="50" height="30" as="geometry" />
        </mxCell>
        <mxCell id="iOMKYeSVAjSAsyUt3DUM-47" value="Выход&lt;br&gt;Получение данных с сервера" style="rounded=1;whiteSpace=wrap;html=1;arcSize=50;fontFamily=Times New Roman;fontSize=26;strokeWidth=1;" vertex="1" parent="1">
          <mxGeometry x="1690" y="920" width="400" height="80" as="geometry" />
        </mxCell>
        <mxCell id="iOMKYeSVAjSAsyUt3DUM-48" value="16" style="text;html=1;strokeColor=none;fillColor=none;align=center;verticalAlign=middle;whiteSpace=wrap;rounded=0;fontSize=26;fontFamily=Times New Roman;strokeWidth=1;" vertex="1" parent="1">
          <mxGeometry x="1690" y="890" width="50" height="30" as="geometry" />
        </mxCell>
        <mxCell id="iOMKYeSVAjSAsyUt3DUM-49" value="1" style="ellipse;whiteSpace=wrap;html=1;aspect=fixed;rounded=0;fontFamily=Times New Roman;fontSize=26;strokeWidth=1;" vertex="1" parent="1">
          <mxGeometry x="860" y="1890" width="80" height="80" as="geometry" />
        </mxCell>
        <mxCell id="iOMKYeSVAjSAsyUt3DUM-50" value="1" style="ellipse;whiteSpace=wrap;html=1;aspect=fixed;rounded=0;fontFamily=Times New Roman;fontSize=26;strokeWidth=1;" vertex="1" parent="1">
          <mxGeometry x="1850" y="120" width="80" height="80" as="geometry" />
        </mxCell>
        <mxCell id="U5MXIK-24vMOK5HsXXuc-1" parent="0" />
        <mxCell id="U5MXIK-24vMOK5HsXXuc-10" style="vsdxID=56;edgeStyle=none;startArrow=none;endArrow=none;startSize=5;endSize=5;strokeColor=#000000;spacingTop=0;spacingBottom=0;spacingLeft=0;spacingRight=0;verticalAlign=middle;html=1;labelBackgroundColor=#ffffff;rounded=0;" parent="U5MXIK-24vMOK5HsXXuc-1" edge="1">
          <mxGeometry relative="1" as="geometry">
            <mxPoint as="offset" />
            <Array as="points" />
            <mxPoint x="120" y="40" as="sourcePoint" />
            <mxPoint x="3260" y="40" as="targetPoint" />
          </mxGeometry>
        </mxCell>
        <mxCell id="U5MXIK-24vMOK5HsXXuc-11" style="vsdxID=55;edgeStyle=none;startArrow=none;endArrow=none;startSize=5;endSize=5;strokeColor=#000000;spacingTop=0;spacingBottom=0;spacingLeft=0;spacingRight=0;verticalAlign=middle;html=1;labelBackgroundColor=#ffffff;rounded=0;" parent="U5MXIK-24vMOK5HsXXuc-1" edge="1">
          <mxGeometry relative="1" as="geometry">
            <mxPoint x="8" as="offset" />
            <Array as="points" />
            <mxPoint x="120" y="2300" as="sourcePoint" />
            <mxPoint x="120" y="40" as="targetPoint" />
          </mxGeometry>
        </mxCell>
        <mxCell id="U5MXIK-24vMOK5HsXXuc-12" style="vsdxID=54;edgeStyle=none;startArrow=none;endArrow=none;startSize=5;endSize=5;strokeColor=#000000;spacingTop=0;spacingBottom=0;spacingLeft=0;spacingRight=0;verticalAlign=middle;html=1;labelBackgroundColor=#ffffff;rounded=0;" parent="U5MXIK-24vMOK5HsXXuc-1" edge="1">
          <mxGeometry relative="1" as="geometry">
            <mxPoint as="offset" />
            <Array as="points" />
            <mxPoint x="120" y="2300" as="sourcePoint" />
            <mxPoint x="3260" y="2300" as="targetPoint" />
          </mxGeometry>
        </mxCell>
        <mxCell id="U5MXIK-24vMOK5HsXXuc-13" style="vsdxID=52;edgeStyle=none;startArrow=none;endArrow=none;startSize=5;endSize=5;strokeColor=#000000;spacingTop=0;spacingBottom=0;spacingLeft=0;spacingRight=0;verticalAlign=middle;html=1;labelBackgroundColor=#ffffff;rounded=0;" parent="U5MXIK-24vMOK5HsXXuc-1" edge="1">
          <mxGeometry relative="1" as="geometry">
            <mxPoint x="8" as="offset" />
            <Array as="points" />
            <mxPoint x="3260" y="2300" as="sourcePoint" />
            <mxPoint x="3260" y="40" as="targetPoint" />
          </mxGeometry>
        </mxCell>
        <mxCell id="U5MXIK-24vMOK5HsXXuc-90" value="Flowchart" parent="0" />
        <mxCell id="U5MXIK-24vMOK5HsXXuc-91" value="Блок-схема" parent="0" />
        <mxCell id="U5MXIK-24vMOK5HsXXuc-118" value="Connector" parent="0" />
        <mxCell id="flblZkYbyNQ9tiGkdh4v-10" value="&lt;p style=&quot;margin-left: 0 ; margin-right: 0 ; margin-top: 0px ; margin-bottom: 0px ; text-indent: 0 ; direction: ltr&quot;&gt;&lt;font style=&quot;font-family: &amp;quot;times new roman&amp;quot; ; color: rgb(0 , 0 , 0) ; direction: ltr ; letter-spacing: 0px ; line-height: 140% ; opacity: 1&quot; size=&quot;1&quot;&gt;&lt;i&gt;Руковод.&lt;/i&gt;&lt;/font&gt;&lt;font style=&quot;font-size: 14px ; font-family: &amp;quot;times new roman&amp;quot; ; color: #000000 ; direction: ltr ; letter-spacing: 0px ; line-height: 140% ; opacity: 1&quot;&gt;&lt;br&gt;&lt;/font&gt;&lt;/p&gt;" style="verticalAlign=middle;align=left;vsdxID=41;fillColor=none;gradientColor=none;shape=stencil(nZBLDoAgDERP0z3SIyjew0SURgSD+Lu9kMZoXLhwN9O+tukAlrNpJg1SzDH4QW/URgNYgZTkjA4UkwJUgGXng+6DX1zLfmoymdXo17xh5zmRJ6Q42BWCfc2oJfdAr+Yv+AP9Cb7OJ3H/2JG1HNGz/84klThPVCc=);strokeColor=none;labelBackgroundColor=none;rounded=0;html=1;whiteSpace=wrap;strokeWidth=1;" parent="U5MXIK-24vMOK5HsXXuc-118" vertex="1">
          <mxGeometry x="2560" y="2200" width="70" height="20" as="geometry" />
        </mxCell>
        <mxCell id="flblZkYbyNQ9tiGkdh4v-13" value="&lt;p style=&quot;margin-left: 0 ; margin-right: 0 ; margin-top: 0px ; margin-bottom: 0px ; text-indent: 0 ; direction: ltr&quot;&gt;&lt;font style=&quot;font-family: &amp;#34;times new roman&amp;#34; ; color: rgb(0 , 0 , 0) ; direction: ltr ; letter-spacing: 0px ; line-height: 140% ; opacity: 1&quot; size=&quot;1&quot;&gt;&lt;i&gt;Лист&lt;/i&gt;&lt;/font&gt;&lt;font style=&quot;font-size: 12px ; font-family: &amp;#34;times new roman&amp;#34; ; color: #000000 ; direction: ltr ; letter-spacing: 0px ; line-height: 140% ; opacity: 1&quot;&gt;&lt;br&gt;&lt;/font&gt;&lt;/p&gt;" style="verticalAlign=middle;align=center;vsdxID=45;fillColor=none;gradientColor=none;shape=stencil(nZBLDoAgDERP0z3SIyjew0SURgSD+Lu9kMZoXLhwN9O+tukAlrNpJg1SzDH4QW/URgNYgZTkjA4UkwJUgGXng+6DX1zLfmoymdXo17xh5zmRJ6Q42BWCfc2oJfdAr+Yv+AP9Cb7OJ3H/2JG1HNGz/84klThPVCc=);strokeColor=none;labelBackgroundColor=none;rounded=0;html=1;whiteSpace=wrap;strokeWidth=1;" parent="U5MXIK-24vMOK5HsXXuc-118" vertex="1">
          <mxGeometry x="2590" y="2160" width="40" height="20" as="geometry" />
        </mxCell>
        <mxCell id="flblZkYbyNQ9tiGkdh4v-15" value="&lt;p style=&quot;margin-left: 0 ; margin-right: 0 ; margin-top: 0px ; margin-bottom: 0px ; text-indent: 0 ; direction: ltr&quot;&gt;&lt;font style=&quot;font-family: &amp;#34;times new roman&amp;#34; ; color: rgb(0 , 0 , 0) ; direction: ltr ; letter-spacing: 0px ; line-height: 140% ; opacity: 1&quot; size=&quot;1&quot;&gt;&lt;i&gt;№ докум.&lt;/i&gt;&lt;/font&gt;&lt;font style=&quot;font-size: 12px ; font-family: &amp;#34;times new roman&amp;#34; ; color: #000000 ; direction: ltr ; letter-spacing: 0px ; line-height: 140% ; opacity: 1&quot;&gt;&lt;br&gt;&lt;/font&gt;&lt;/p&gt;" style="verticalAlign=middle;align=center;vsdxID=45;fillColor=none;gradientColor=none;shape=stencil(nZBLDoAgDERP0z3SIyjew0SURgSD+Lu9kMZoXLhwN9O+tukAlrNpJg1SzDH4QW/URgNYgZTkjA4UkwJUgGXng+6DX1zLfmoymdXo17xh5zmRJ6Q42BWCfc2oJfdAr+Yv+AP9Cb7OJ3H/2JG1HNGz/84klThPVCc=);strokeColor=none;labelBackgroundColor=none;rounded=0;html=1;whiteSpace=wrap;strokeWidth=1;" parent="U5MXIK-24vMOK5HsXXuc-118" vertex="1">
          <mxGeometry x="2630" y="2160" width="90" height="20" as="geometry" />
        </mxCell>
        <mxCell id="flblZkYbyNQ9tiGkdh4v-18" value="&lt;p style=&quot;margin-left: 0 ; margin-right: 0 ; margin-top: 0px ; margin-bottom: 0px ; text-indent: 0 ; direction: ltr&quot;&gt;&lt;font style=&quot;font-family: &amp;#34;times new roman&amp;#34; ; color: rgb(0 , 0 , 0) ; direction: ltr ; letter-spacing: 0px ; line-height: 140% ; opacity: 1&quot; size=&quot;1&quot;&gt;&lt;i&gt;Дата&lt;/i&gt;&lt;/font&gt;&lt;font style=&quot;font-size: 12px ; font-family: &amp;#34;times new roman&amp;#34; ; color: #000000 ; direction: ltr ; letter-spacing: 0px ; line-height: 140% ; opacity: 1&quot;&gt;&lt;br&gt;&lt;/font&gt;&lt;/p&gt;" style="verticalAlign=middle;align=center;vsdxID=45;fillColor=none;gradientColor=none;shape=stencil(nZBLDoAgDERP0z3SIyjew0SURgSD+Lu9kMZoXLhwN9O+tukAlrNpJg1SzDH4QW/URgNYgZTkjA4UkwJUgGXng+6DX1zLfmoymdXo17xh5zmRJ6Q42BWCfc2oJfdAr+Yv+AP9Cb7OJ3H/2JG1HNGz/84klThPVCc=);strokeColor=none;labelBackgroundColor=none;rounded=0;html=1;whiteSpace=wrap;strokeWidth=1;" parent="U5MXIK-24vMOK5HsXXuc-118" vertex="1">
          <mxGeometry x="2780" y="2160" width="40" height="20" as="geometry" />
        </mxCell>
        <mxCell id="flblZkYbyNQ9tiGkdh4v-20" value="&lt;p style=&quot;margin-left: 0 ; margin-right: 0 ; margin-top: 0px ; margin-bottom: 0px ; text-indent: 0 ; direction: ltr&quot;&gt;&lt;font face=&quot;Times New Roman&quot; style=&quot;color: rgb(0, 0, 0); direction: ltr; letter-spacing: 0px; line-height: 140%; opacity: 1; font-size: 11px;&quot;&gt;Красковский П.Н.&lt;/font&gt;&lt;/p&gt;" style="verticalAlign=middle;align=center;vsdxID=41;fillColor=none;gradientColor=none;shape=stencil(nZBLDoAgDERP0z3SIyjew0SURgSD+Lu9kMZoXLhwN9O+tukAlrNpJg1SzDH4QW/URgNYgZTkjA4UkwJUgGXng+6DX1zLfmoymdXo17xh5zmRJ6Q42BWCfc2oJfdAr+Yv+AP9Cb7OJ3H/2JG1HNGz/84klThPVCc=);strokeColor=none;labelBackgroundColor=none;rounded=0;html=1;whiteSpace=wrap;strokeWidth=1;" parent="U5MXIK-24vMOK5HsXXuc-118" vertex="1">
          <mxGeometry x="2630" y="2200" width="90" height="20" as="geometry" />
        </mxCell>
        <mxCell id="U5MXIK-24vMOK5HsXXuc-119" value="Выноска" parent="0" />
      </root>
    </mxGraphModel>
  </diagram>
</mxfile>
